<svg viewBox="0 0 128 128" xmlns="http://www.w3.org/2000/svg">
  <defs>
    <linearGradient id="learnGrad" x1="0%" y1="0%" x2="100%" y2="100%">
      <stop offset="0%" style="stop-color:#7c4dff;stop-opacity:1" />
      <stop offset="100%" style="stop-color:#6200ea;stop-opacity:1" />
    </linearGradient>
  </defs>
  <!-- Open book left page -->
  <path d="M64 28 Q44 24 24 28 L24 96 Q44 92 64 96Z" fill="none" stroke="url(#learnGrad)" stroke-width="3"/>
  <!-- Open book right page -->
  <path d="M64 28 Q84 24 104 28 L104 96 Q84 92 64 96Z" fill="none" stroke="url(#learnGrad)" stroke-width="3"/>
  <!-- Spine -->
  <line x1="64" y1="28" x2="64" y2="96" stroke="url(#learnGrad)" stroke-width="2" opacity="0.5"/>
  <!-- Left page lines -->
  <line x1="32" y1="42" x2="56" y2="40" stroke="url(#learnGrad)" stroke-width="1.5" opacity="0.4"/>
  <line x1="32" y1="54" x2="56" y2="52" stroke="url(#learnGrad)" stroke-width="1.5" opacity="0.4"/>
  <line x1="32" y1="66" x2="56" y2="64" stroke="url(#learnGrad)" stroke-width="1.5" opacity="0.4"/>
  <line x1="32" y1="78" x2="56" y2="76" stroke="url(#learnGrad)" stroke-width="1.5" opacity="0.4"/>
  <!-- Right page lines -->
  <line x1="72" y1="40" x2="96" y2="42" stroke="url(#learnGrad)" stroke-width="1.5" opacity="0.4"/>
  <line x1="72" y1="52" x2="96" y2="54" stroke="url(#learnGrad)" stroke-width="1.5" opacity="0.4"/>
  <line x1="72" y1="64" x2="96" y2="66" stroke="url(#learnGrad)" stroke-width="1.5" opacity="0.4"/>
  <!-- Graduation cap -->
  <polygon points="64,12 48,20 64,28 80,20" fill="url(#learnGrad)" opacity="0.6"/>
</svg>
