<svg viewBox="0 0 128 128" xmlns="http://www.w3.org/2000/svg">
  <defs>
    <linearGradient id="swarmGrad" x1="0%" y1="0%" x2="100%" y2="100%">
      <stop offset="0%" style="stop-color:#00e5ff;stop-opacity:1" />
      <stop offset="100%" style="stop-color:#0091ea;stop-opacity:1" />
    </linearGradient>
  </defs>
  <!-- Brain outline -->
  <path d="M64 20c-22 0-36 16-36 36 0 14 8 26 20 32v12h32V88c12-6 20-18 20-32 0-20-14-36-36-36z" fill="none" stroke="url(#swarmGrad)" stroke-width="3"/>
  <!-- Neural nodes -->
  <circle cx="50" cy="48" r="5" fill="url(#swarmGrad)" opacity="0.9"/>
  <circle cx="78" cy="48" r="5" fill="url(#swarmGrad)" opacity="0.9"/>
  <circle cx="64" cy="62" r="5" fill="url(#swarmGrad)" opacity="0.9"/>
  <circle cx="50" cy="76" r="4" fill="url(#swarmGrad)" opacity="0.7"/>
  <circle cx="78" cy="76" r="4" fill="url(#swarmGrad)" opacity="0.7"/>
  <!-- Connections -->
  <line x1="50" y1="48" x2="78" y2="48" stroke="url(#swarmGrad)" stroke-width="1.5" opacity="0.5"/>
  <line x1="50" y1="48" x2="64" y2="62" stroke="url(#swarmGrad)" stroke-width="1.5" opacity="0.5"/>
  <line x1="78" y1="48" x2="64" y2="62" stroke="url(#swarmGrad)" stroke-width="1.5" opacity="0.5"/>
  <line x1="50" y1="76" x2="64" y2="62" stroke="url(#swarmGrad)" stroke-width="1.5" opacity="0.5"/>
  <line x1="78" y1="76" x2="64" y2="62" stroke="url(#swarmGrad)" stroke-width="1.5" opacity="0.5"/>
</svg>
